<svg width="637" height="217" viewBox="0 0 637 217" fill="none" xmlns="http://www.w3.org/2000/svg">
<path d="M69.357 28.04H86.939C88.4337 28.04 89.4957 28.394 90.125 29.102C90.833 29.7313 91.187 30.7933 91.187 32.288V78.072C91.187 80.5893 91.069 82.9493 90.833 85.152C90.6757 87.276 90.0857 89.7933 89.063 92.704L83.163 108.752C82.7697 109.932 82.1797 110.955 81.393 111.82C80.685 112.607 79.7017 113 78.443 113H62.749C61.4903 113 60.3497 112.725 59.327 112.174C58.3043 111.623 57.6357 110.719 57.321 109.46L51.893 90.226C51.657 89.4393 51.3423 88.928 50.949 88.692C50.6343 88.3773 50.241 88.22 49.769 88.22H48.707C48.235 88.22 47.8023 88.3773 47.409 88.692C47.0943 88.928 46.819 89.4393 46.583 90.226L41.037 109.46C40.7223 110.64 40.1323 111.545 39.267 112.174C38.4017 112.725 37.3397 113 36.081 113H20.505C19.2463 113 18.145 112.607 17.201 111.82C16.3357 111.033 15.7063 110.011 15.313 108.752L9.41298 92.468C8.39032 89.5573 7.76098 87.04 7.52498 84.916C7.36765 82.7133 7.28898 80.3533 7.28898 77.836V32.288C7.28898 30.7933 7.60365 29.7313 8.23298 29.102C8.94099 28.394 10.0423 28.04 11.537 28.04H29.709C31.2037 28.04 32.2657 28.394 32.895 29.102C33.603 29.7313 33.957 30.7933 33.957 32.288V75.712L40.801 60.844C41.4303 59.5067 42.2563 58.5627 43.279 58.012C44.3017 57.4613 45.5603 57.186 47.055 57.186H52.011C53.5057 57.186 54.7643 57.4613 55.787 58.012C56.8097 58.5627 57.6357 59.5067 58.265 60.844L65.109 75.712V32.288C65.109 30.7933 65.4237 29.7313 66.053 29.102C66.761 28.394 67.8623 28.04 69.357 28.04ZM137.213 52.82L131.667 70.756H150.193L144.647 52.82C144.333 52.112 143.979 51.6007 143.585 51.286C143.271 50.9713 142.877 50.814 142.405 50.814H139.455C138.983 50.814 138.551 50.9713 138.157 51.286C137.843 51.6007 137.528 52.112 137.213 52.82ZM130.487 108.752C130.487 110.247 130.133 111.348 129.425 112.056C128.796 112.685 127.734 113 126.239 113H108.893C107.399 113 106.297 112.685 105.589 112.056C104.96 111.348 104.645 110.247 104.645 108.752V77.6C104.645 75.24 104.999 72.526 105.707 69.458C106.494 66.39 107.674 62.8107 109.247 58.72L119.513 31.934C119.985 30.5967 120.693 29.6133 121.637 28.984C122.66 28.3547 123.958 28.04 125.531 28.04H157.273C158.768 28.04 159.987 28.3547 160.931 28.984C161.954 29.6133 162.701 30.5967 163.173 31.934L173.439 58.72C175.013 62.8107 176.153 66.39 176.861 69.458C177.648 72.526 178.041 75.24 178.041 77.6V108.752C178.041 110.247 177.687 111.348 176.979 112.056C176.35 112.685 175.288 113 173.793 113H155.975C154.402 113 153.222 112.685 152.435 112.056C151.727 111.348 151.373 110.247 151.373 108.752V92.232H130.487V108.752ZM232.023 113H194.735C193.24 113 192.139 112.685 191.431 112.056C190.801 111.348 190.487 110.247 190.487 108.752V94.946C190.487 93.4513 190.801 92.3893 191.431 91.76C192.139 91.052 193.24 90.698 194.735 90.698H226.477C227.499 90.698 228.247 90.3833 228.719 89.754C229.269 89.046 229.545 88.22 229.545 87.276C229.545 85.9387 229.269 84.9553 228.719 84.326C228.247 83.6967 227.499 83.3427 226.477 83.264L208.777 80.786C203.27 79.9993 198.825 78.19 195.443 75.358C192.139 72.526 190.487 67.806 190.487 61.198V48.808C190.487 42.1213 192.65 37.008 196.977 33.468C201.303 29.8493 207.282 28.04 214.913 28.04H247.953C249.447 28.04 250.509 28.394 251.139 29.102C251.847 29.7313 252.201 30.7933 252.201 32.288V46.33C252.201 47.8247 251.847 48.926 251.139 49.634C250.509 50.2633 249.447 50.578 247.953 50.578H220.459C219.436 50.578 218.649 50.932 218.099 51.64C217.548 52.2693 217.273 53.0953 217.273 54.118C217.273 55.1407 217.548 56.006 218.099 56.714C218.649 57.422 219.436 57.8153 220.459 57.894L238.041 60.254C243.547 61.0407 247.992 62.85 251.375 65.682C254.757 68.514 256.449 73.234 256.449 79.842V92.232C256.449 98.9187 254.246 104.071 249.841 107.69C245.514 111.23 239.575 113 232.023 113ZM291.895 113H273.605C272.11 113 271.009 112.685 270.301 112.056C269.672 111.348 269.357 110.247 269.357 108.752V32.288C269.357 30.7933 269.672 29.7313 270.301 29.102C271.009 28.394 272.11 28.04 273.605 28.04H291.895C293.39 28.04 294.452 28.394 295.081 29.102C295.789 29.7313 296.143 30.7933 296.143 32.288V57.894H315.849V32.288C315.849 30.7933 316.164 29.7313 316.793 29.102C317.501 28.394 318.602 28.04 320.097 28.04H338.387C339.882 28.04 340.944 28.394 341.573 29.102C342.281 29.7313 342.635 30.7933 342.635 32.288V108.752C342.635 110.247 342.281 111.348 341.573 112.056C340.944 112.685 339.882 113 338.387 113H320.097C318.602 113 317.501 112.685 316.793 112.056C316.164 111.348 315.849 110.247 315.849 108.752V82.556H296.143V108.752C296.143 110.247 295.789 111.348 295.081 112.056C294.452 112.685 293.39 113 291.895 113ZM431.228 90.698C431.228 94.3167 430.677 97.6207 429.576 100.61C428.553 103.521 426.665 106.038 423.912 108.162C421.237 110.207 417.54 111.82 412.82 113C408.1 114.18 402.082 114.77 394.766 114.77C387.45 114.77 381.432 114.18 376.712 113C371.992 111.82 368.255 110.207 365.502 108.162C362.827 106.038 360.939 103.521 359.838 100.61C358.815 97.6207 358.304 94.3167 358.304 90.698V32.288C358.304 30.7933 358.619 29.7313 359.248 29.102C359.956 28.394 361.057 28.04 362.552 28.04H381.078C382.573 28.04 383.635 28.394 384.264 29.102C384.972 29.7313 385.326 30.7933 385.326 32.288V86.096C385.326 87.6693 385.916 89.0067 387.096 90.108C388.276 91.1307 390.911 91.642 395.002 91.642C399.171 91.642 401.846 91.1307 403.026 90.108C404.206 89.0067 404.796 87.6693 404.796 86.096V32.288C404.796 30.7933 405.111 29.7313 405.74 29.102C406.448 28.394 407.549 28.04 409.044 28.04H426.98C428.475 28.04 429.537 28.394 430.166 29.102C430.874 29.7313 431.228 30.7933 431.228 32.288V90.698Z" fill="#FAF8EB"/>
<path d="M23.6938 154.8V165.04H29.6938C31.0804 165.04 32.0138 164.693 32.4938 164C32.9738 163.253 33.2138 162.347 33.2138 161.28V158.56C33.2138 157.493 32.9738 156.613 32.4938 155.92C32.0138 155.173 31.0804 154.8 29.6938 154.8H23.6938ZM20.8138 198H8.49375C7.48042 198 6.73375 197.787 6.25375 197.36C5.82708 196.88 5.61375 196.133 5.61375 195.12V143.28C5.61375 142.267 5.82708 141.547 6.25375 141.12C6.73375 140.64 7.48042 140.4 8.49375 140.4H35.1338C41.1071 140.4 45.2138 141.653 47.4538 144.16C49.7471 146.613 50.8938 149.813 50.8938 153.76V157.44C50.8938 159.68 50.5471 161.6 49.8538 163.2C49.2138 164.747 48.0671 165.867 46.4138 166.56C49.2938 166.88 51.6138 168.053 53.3738 170.08C55.1871 172.107 56.0938 174.8 56.0938 178.16V195.12C56.0938 196.133 55.8538 196.88 55.3738 197.36C54.9471 197.787 54.2271 198 53.2138 198H40.8138C39.8004 198 39.0538 197.787 38.5738 197.36C38.1471 196.88 37.9338 196.133 37.9338 195.12V182.88C37.9338 181.707 37.6938 180.853 37.2138 180.32C36.7871 179.733 36.0138 179.44 34.8938 179.44H23.6938V195.12C23.6938 196.133 23.4538 196.88 22.9738 197.36C22.5471 197.787 21.8271 198 20.8138 198ZM113.476 182.88C113.476 185.333 113.103 187.573 112.356 189.6C111.663 191.573 110.383 193.28 108.516 194.72C106.703 196.107 104.17 197.2 100.916 198C97.7163 198.8 93.6363 199.2 88.6763 199.2C83.7163 199.2 79.6096 198.8 76.3563 198C73.1029 197.2 70.5429 196.107 68.6763 194.72C66.8629 193.28 65.5829 191.573 64.8363 189.6C64.1429 187.573 63.7963 185.333 63.7963 182.88V155.6C63.7963 153.147 64.1429 150.933 64.8363 148.96C65.5829 146.933 66.8629 145.2 68.6763 143.76C70.5429 142.32 73.1029 141.2 76.3563 140.4C79.6096 139.6 83.7163 139.2 88.6763 139.2C93.6363 139.2 97.7163 139.6 100.916 140.4C104.17 141.2 106.703 142.32 108.516 143.76C110.383 145.2 111.663 146.933 112.356 148.96C113.103 150.933 113.476 153.147 113.476 155.6V182.88ZM81.9563 180C81.9563 181.067 82.3563 181.973 83.1563 182.72C83.9563 183.413 85.7963 183.76 88.6763 183.76C91.5563 183.76 93.3963 183.413 94.1963 182.72C94.9963 181.973 95.3963 181.067 95.3963 180V158.48C95.3963 157.467 94.9963 156.613 94.1963 155.92C93.3963 155.173 91.5563 154.8 88.6763 154.8C85.7963 154.8 83.9563 155.173 83.1563 155.92C82.3563 156.613 81.9563 157.467 81.9563 158.48V180ZM157.261 198H126.541C125.527 198 124.781 197.787 124.301 197.36C123.874 196.88 123.661 196.133 123.661 195.12V143.28C123.661 142.267 123.874 141.547 124.301 141.12C124.781 140.64 125.527 140.4 126.541 140.4H152.061C157.287 140.4 161.154 141.413 163.661 143.44C166.167 145.413 167.421 148.48 167.421 152.64V156.48C167.421 158.72 167.021 160.56 166.221 162C165.474 163.387 164.301 164.427 162.701 165.12C166.114 165.44 168.647 166.613 170.301 168.64C171.954 170.667 172.781 173.627 172.781 177.52V184.88C172.781 189.36 171.501 192.667 168.941 194.8C166.434 196.933 162.541 198 157.261 198ZM141.661 154V162.64H148.461C149.474 162.64 150.221 162.373 150.701 161.84C151.234 161.307 151.501 160.507 151.501 159.44V157.2C151.501 156.133 151.234 155.333 150.701 154.8C150.221 154.267 149.474 154 148.461 154H141.661ZM141.661 174.96V184.4H152.061C153.074 184.4 153.821 184.133 154.301 183.6C154.834 183.067 155.101 182.267 155.101 181.2V178.08C155.101 177.013 154.834 176.24 154.301 175.76C153.821 175.227 153.074 174.96 152.061 174.96H141.661ZM230.429 182.88C230.429 185.333 230.056 187.573 229.309 189.6C228.616 191.573 227.336 193.28 225.469 194.72C223.656 196.107 221.123 197.2 217.869 198C214.669 198.8 210.589 199.2 205.629 199.2C200.669 199.2 196.563 198.8 193.309 198C190.056 197.2 187.496 196.107 185.629 194.72C183.816 193.28 182.536 191.573 181.789 189.6C181.096 187.573 180.749 185.333 180.749 182.88V155.6C180.749 153.147 181.096 150.933 181.789 148.96C182.536 146.933 183.816 145.2 185.629 143.76C187.496 142.32 190.056 141.2 193.309 140.4C196.563 139.6 200.669 139.2 205.629 139.2C210.589 139.2 214.669 139.6 217.869 140.4C221.123 141.2 223.656 142.32 225.469 143.76C227.336 145.2 228.616 146.933 229.309 148.96C230.056 150.933 230.429 153.147 230.429 155.6V182.88ZM198.909 180C198.909 181.067 199.309 181.973 200.109 182.72C200.909 183.413 202.749 183.76 205.629 183.76C208.509 183.76 210.349 183.413 211.149 182.72C211.949 181.973 212.349 181.067 212.349 180V158.48C212.349 157.467 211.949 156.613 211.149 155.92C210.349 155.173 208.509 154.8 205.629 154.8C202.749 154.8 200.909 155.173 200.109 155.92C199.309 156.613 198.909 157.467 198.909 158.48V180ZM267.423 198H254.463C253.45 198 252.703 197.787 252.223 197.36C251.796 196.88 251.583 196.133 251.583 195.12V155.84H239.823C238.81 155.84 238.063 155.627 237.583 155.2C237.156 154.72 236.943 153.973 236.943 152.96V143.28C236.943 142.267 237.156 141.547 237.583 141.12C238.063 140.64 238.81 140.4 239.823 140.4H282.063C283.076 140.4 283.796 140.64 284.223 141.12C284.703 141.547 284.943 142.267 284.943 143.28V152.96C284.943 153.973 284.703 154.72 284.223 155.2C283.796 155.627 283.076 155.84 282.063 155.84H270.303V195.12C270.303 196.133 270.063 196.88 269.583 197.36C269.156 197.787 268.436 198 267.423 198ZM294.323 198C293.31 198 292.563 197.787 292.083 197.36C291.656 196.88 291.443 196.133 291.443 195.12V185.6C291.443 184.587 291.656 183.867 292.083 183.44C292.563 182.96 293.31 182.72 294.323 182.72H302.243V155.84H294.323C293.31 155.84 292.563 155.627 292.083 155.2C291.656 154.72 291.443 153.973 291.443 152.96V143.28C291.443 142.267 291.656 141.547 292.083 141.12C292.563 140.64 293.31 140.4 294.323 140.4H328.403C329.416 140.4 330.136 140.64 330.563 141.12C331.043 141.547 331.283 142.267 331.283 143.28V152.96C331.283 153.973 331.043 154.72 330.563 155.2C330.136 155.627 329.416 155.84 328.403 155.84H320.643V182.72H328.403C329.416 182.72 330.136 182.96 330.563 183.44C331.043 183.867 331.283 184.587 331.283 185.6V195.12C331.283 196.133 331.043 196.88 330.563 197.36C330.136 197.787 329.416 198 328.403 198H294.323ZM379.481 198H359.961C353.294 198 348.334 196.667 345.081 194C341.881 191.333 340.281 187.227 340.281 181.68V156.8C340.281 151.253 341.881 147.147 345.081 144.48C348.334 141.76 353.294 140.4 359.961 140.4H379.481C380.494 140.4 381.214 140.64 381.641 141.12C382.121 141.547 382.361 142.267 382.361 143.28V152.96C382.361 153.973 382.121 154.72 381.641 155.2C381.214 155.627 380.494 155.84 379.481 155.84H363.401C361.747 155.84 360.521 156.187 359.721 156.88C358.921 157.52 358.521 158.507 358.521 159.84V178.88C358.521 180.213 358.921 181.2 359.721 181.84C360.521 182.427 361.747 182.72 363.401 182.72H379.481C380.494 182.72 381.214 182.96 381.641 183.44C382.121 183.867 382.361 184.587 382.361 185.6V195.12C382.361 196.133 382.121 196.88 381.641 197.36C381.214 197.787 380.494 198 379.481 198ZM418.115 198H392.835C391.822 198 391.075 197.787 390.595 197.36C390.168 196.88 389.955 196.133 389.955 195.12V185.76C389.955 184.747 390.168 184.027 390.595 183.6C391.075 183.12 391.822 182.88 392.835 182.88H414.355C415.048 182.88 415.555 182.667 415.875 182.24C416.248 181.76 416.435 181.2 416.435 180.56C416.435 179.653 416.248 178.987 415.875 178.56C415.555 178.133 415.048 177.893 414.355 177.84L402.355 176.16C398.622 175.627 395.608 174.4 393.315 172.48C391.075 170.56 389.955 167.36 389.955 162.88V154.48C389.955 149.947 391.422 146.48 394.355 144.08C397.288 141.627 401.342 140.4 406.515 140.4H428.915C429.928 140.4 430.648 140.64 431.075 141.12C431.555 141.547 431.795 142.267 431.795 143.28V152.8C431.795 153.813 431.555 154.56 431.075 155.04C430.648 155.467 429.928 155.68 428.915 155.68H410.275C409.582 155.68 409.048 155.92 408.675 156.4C408.302 156.827 408.115 157.387 408.115 158.08C408.115 158.773 408.302 159.36 408.675 159.84C409.048 160.32 409.582 160.587 410.275 160.64L422.195 162.24C425.928 162.773 428.942 164 431.235 165.92C433.528 167.84 434.675 171.04 434.675 175.52V183.92C434.675 188.453 433.182 191.947 430.195 194.4C427.262 196.8 423.235 198 418.115 198Z" fill="#FAF8EB"/>
<path d="M523.243 39.1494C517.626 40.8517 504.839 47.2382 498.63 59.167C492.769 70.4269 494.879 81.541 494.79 90.3965C494.78 91.4178 494.474 92.409 493.949 93.2849L477.972 119.913C475.512 124.012 478.465 129.228 483.246 129.228H488.598C491.995 129.228 494.749 131.981 494.749 135.378C494.749 140.841 494.749 147.548 494.749 151.288C494.749 158.029 498.324 170.693 513.235 170.693C515.471 170.693 517.278 170.693 518.727 170.693C522.124 170.693 523.243 173.447 523.243 176.844V195" stroke="#FAF8EB" stroke-width="10" stroke-linecap="round" stroke-linejoin="round"/>
<path d="M591.726 54.9619H561.996C552.654 54.9619 545.081 62.535 545.081 71.877V101.607C545.081 110.948 552.654 118.522 561.996 118.522H591.726C601.068 118.522 608.641 110.948 608.641 101.607V71.877C608.641 62.535 601.068 54.9619 591.726 54.9619Z" stroke="#FAF8EB" stroke-width="10" stroke-linejoin="round"/>
<path d="M588.889 68.5627H564.833C561.436 68.5627 558.682 71.3166 558.682 74.7137V98.7702C558.682 102.167 561.436 104.921 564.833 104.921H588.889C592.286 104.921 595.04 102.167 595.04 98.7702V74.7137C595.04 71.3166 592.286 68.5627 588.889 68.5627Z" fill="#FAF8EB"/>
<path d="M576.861 135.151V141.483" stroke="#FAF8EB" stroke-width="10" stroke-linecap="round"/>
<path d="M556.437 135.151V141.483" stroke="#FAF8EB" stroke-width="10" stroke-linecap="round"/>
<path d="M597.289 135.151V141.483" stroke="#FAF8EB" stroke-width="10" stroke-linecap="round"/>
<path d="M576.861 32V38.3321" stroke="#FAF8EB" stroke-width="10" stroke-linecap="round"/>
<path d="M556.437 32V38.3321" stroke="#FAF8EB" stroke-width="10" stroke-linecap="round"/>
<path d="M597.289 32V38.3321" stroke="#FAF8EB" stroke-width="10" stroke-linecap="round"/>
<path d="M528.453 86.7417H522.121" stroke="#FAF8EB" stroke-width="10" stroke-linecap="round"/>
<path d="M528.453 66.3157H522.121" stroke="#FAF8EB" stroke-width="10" stroke-linecap="round"/>
<path d="M528.453 107.168H522.121" stroke="#FAF8EB" stroke-width="10" stroke-linecap="round"/>
<path d="M631.604 86.7417H625.271" stroke="#FAF8EB" stroke-width="10" stroke-linecap="round"/>
<path d="M631.604 66.3157H625.271" stroke="#FAF8EB" stroke-width="10" stroke-linecap="round"/>
<path d="M631.604 107.168H625.271" stroke="#FAF8EB" stroke-width="10" stroke-linecap="round"/>
<path d="M585.236 194.999V179.805C585.236 176.408 588.005 173.663 591.351 173.074C596.035 172.248 601.734 170.423 606.627 166.859C614.006 161.485 617.237 153.635 619.39 145.177" stroke="#FAF8EB" stroke-width="10" stroke-linecap="round"/>
</svg>
